# xmcd
#
# Track frame offsets: 
#        150
#        24895
#        39732
#        53874
#        79568
#        100977
#        118349
#        138849
#        159956
#        176021
#        200317
#        223740
#
# Disc length: 3197 seconds
#
# Revision: 1
# Processed by: cddbd v1.5.2PL0 Copyright (c) Steve Scherf et al.
# Submitted via: ExactAudioCopy v1.3
#
DISCID=9d0c7b0c
DTITLE=Alex McMurray - I Will Never Be Alone In This Land
DYEAR=2012
DGENRE=Blues
TTITLE0=I Will Never Be Alone
TTITLE1=As Long As You Let Me
TTITLE2=All My Rivers
TTITLE3=One Step Away From the Hole
TTITLE4=Me and My Bad Luck
TTITLE5=The Get Go
TTITLE6=The Man Who Shot the Man Who Shot Liberty Valance
TTITLE7=Beneath the Rain
TTITLE8=I Can't Wait (Until They Turn My Baby Loose)
TTITLE9=Texas Again
TTITLE10=Otis at the Wheel
TTITLE11=Diamonds In Your Hand
EXTD=
EXTT0=
EXTT1=
EXTT2=
EXTT3=
EXTT4=
EXTT5=
EXTT6=
EXTT7=
EXTT8=
EXTT9=
EXTT10=
EXTT11=
PLAYORDER=
